<svg width="175" height="48" viewBox="0 0 175 48" fill="none" xmlns="http://www.w3.org/2000/svg">
<g clip-path="url(#clip0_4066_575)">
<path fill-rule="evenodd" clip-rule="evenodd" d="M32.7328 11.8832H22.4186L16.374 26.0668L10.3293 11.8832H0.0151367C3.76184 20.6746 7.50708 29.4674 11.2553 38.2578L7.1033 48H17.4175C22.5754 35.8972 27.6082 23.9075 32.7326 11.8835L32.7328 11.8832ZM163.886 0.0756352H174.986L164.948 23.9713H153.848L163.886 0.0756352ZM156.576 26.2757C160.033 26.2757 162.835 29.0362 162.835 32.4414C162.835 35.8467 160.033 38.6072 156.576 38.6072C153.12 38.6072 150.318 35.8467 150.318 32.4414C150.318 29.0364 153.12 26.2757 156.576 26.2757ZM134.751 11.1659C142.524 11.1659 148.824 17.3736 148.824 25.0309C148.824 32.6885 142.523 38.8959 134.751 38.8959C126.979 38.8959 120.678 32.6882 120.678 25.0309C120.678 17.3733 126.979 11.1659 134.751 11.1659ZM134.751 19.6172C137.786 19.6172 140.246 22.0411 140.246 25.0311C140.246 28.0212 137.786 30.4451 134.751 30.4451C131.716 30.4451 129.256 28.0212 129.256 25.0311C129.256 22.0411 131.716 19.6172 134.751 19.6172ZM104.539 11.1659C112.311 11.1659 118.612 17.3736 118.612 25.0309C118.612 32.6885 112.311 38.8959 104.539 38.8959C96.7662 38.8959 90.4656 32.6882 90.4656 25.0309C90.4656 17.3733 96.7664 11.1659 104.539 11.1659ZM104.539 19.6172C107.573 19.6172 110.034 22.0411 110.034 25.0311C110.034 28.0212 107.573 30.4451 104.539 30.4451C101.504 30.4451 99.0434 28.0212 99.0434 25.0311C99.0434 22.0411 101.504 19.6172 104.539 19.6172ZM62.9909 0.000242421H72.2971V14.2541C72.2971 14.2541 73.9252 11.1659 79.3035 11.1659C84.6818 11.1659 88.1313 13.4973 88.2002 23.0435V38.6072H78.8941V23.0435C78.8941 21.2486 77.4172 19.7936 75.5954 19.7936C73.7316 19.7936 72.2518 21.3034 72.2983 23.1357L72.2968 38.6072H62.9907V0L62.9909 0.000242421ZM50.3193 11.8832H59.6254V38.6074H50.3193V36.0882C48.2351 37.8501 45.638 38.8964 42.8217 38.8964C35.9586 38.8964 30.395 32.6887 30.395 25.0314C30.395 17.3738 35.9586 11.1664 42.8217 11.1664C45.638 11.1664 48.2354 12.2124 50.3193 13.9746V11.8837V11.8832ZM45.0775 19.6172C48.1124 19.6172 50.5727 22.0411 50.5727 25.0311C50.5727 28.0212 48.1124 30.4451 45.0775 30.4451C42.0426 30.4451 39.5823 28.0212 39.5823 25.0311C39.5823 22.0411 42.0426 19.6172 45.0775 19.6172Z" fill="white"/>
</g>
<defs>
<clipPath id="clip0_4066_575">
<rect width="175" height="48" fill="white"/>
</clipPath>
</defs>
</svg>
