<svg width="182" height="48" viewBox="0 0 182 48" fill="none" xmlns="http://www.w3.org/2000/svg">
<g clip-path="url(#clip0_4066_579)">
<path d="M7.53245 13.6564C8.08353 14.5143 8.32656 15.279 8.63426 16.8931C10.7892 14.7725 13.4465 13.6564 16.3469 13.6564C18.9662 13.6564 21.1162 14.5143 22.7794 16.2645C23.2278 16.7033 23.6599 17.2693 24.0326 17.8248C26.9273 14.8356 29.5199 13.6564 32.9927 13.6564C35.4664 13.6564 37.8107 14.4021 39.2419 15.6437C41.0294 17.2012 41.5965 19.0739 41.5965 23.4333V46.1151H33.5601V25.0581C33.5601 21.2411 33.1117 20.5032 30.9568 20.5032C29.4119 20.5032 27.241 21.5653 25.4584 23.1851V46.1144H17.6161V25.3576C17.6161 21.3779 17.044 20.443 14.7431 20.443C13.2145 20.443 11.0973 21.2418 9.31503 22.8695V46.1147H1.22432V23.8657C1.22432 19.2591 0.910941 17.2693 0.0415039 15.7039L7.53245 13.6564ZM56.2931 22.9949C55.7256 24.6827 55.4236 26.9233 55.4236 30.1035C55.4236 33.7705 55.796 36.5262 56.4711 38.1403C57.2162 39.8855 59.0801 40.7567 60.6726 40.7567C64.2594 40.7567 65.7933 37.5199 65.7933 29.981C65.7933 25.6789 65.2369 22.8695 64.1297 21.4324C63.3353 20.3814 62.0448 19.7552 60.5543 19.7552C58.572 19.7552 56.9625 20.9968 56.2931 22.9949ZM71.1829 18.3883C73.711 21.3776 74.8398 24.8651 74.8398 30.0355C74.8398 35.5186 73.5923 39.2644 70.8646 42.374C68.4666 45.1128 65.3069 46.8011 60.4352 46.8011C51.8315 46.8011 46.2201 40.3182 46.2201 30.2912C46.2201 20.2553 51.8908 13.5854 60.4352 13.5854C64.9452 13.5854 68.4663 15.1487 71.1829 18.3883ZM101.477 14.2119V19.9451L87.4997 40.3182H102.023L100.04 46.1147H76.7524V40.9447L91.632 20.0712H77.9942V14.2119H101.478H101.477ZM114.511 13.4604V46.1147H106.23V14.7725L114.511 13.4604ZM115.482 5.42866C115.482 8.29898 113.219 10.5908 110.357 10.5908C107.586 10.5908 105.307 8.29899 105.307 5.42902C105.307 2.56478 107.662 0.252896 110.497 0.252896C113.273 0.252896 115.482 2.56478 115.482 5.42902V5.42866ZM129.59 8.29898V33.1555C129.59 38.6468 129.655 39.3847 130.152 40.2559C130.465 40.8218 131.134 41.1274 131.826 41.1274C132.123 41.1274 132.301 41.1274 132.749 41.0128L134.164 45.9919C132.749 46.55 131.016 46.8613 129.223 46.8613C125.69 46.8613 122.85 45.1834 121.866 42.5097C121.245 40.8874 121.11 39.8855 121.11 35.3391V11.5272C121.11 7.35618 121.002 4.80788 120.694 1.93039L129.163 0C129.46 1.74269 129.59 3.8006 129.59 8.29898ZM146.765 8.29898V33.1555C146.765 38.6468 146.835 39.3847 147.343 40.2559C147.634 40.8218 148.304 41.1274 148.996 41.1274C149.309 41.1274 149.498 41.1274 149.935 41.0128L151.345 45.9919C149.935 46.55 148.201 46.8613 146.403 46.8613C142.877 46.8613 140.03 45.1834 139.042 42.5097C138.41 40.8874 138.307 39.8855 138.307 35.3391V11.5272C138.307 7.35618 138.183 4.80788 137.864 1.93039L146.322 0C146.662 1.74269 146.765 3.8006 146.765 8.29898ZM170.491 32.1593C164.766 32.1593 162.757 33.2099 162.757 37.027C162.757 39.5094 164.324 41.1922 166.424 41.1922C167.964 41.1922 169.52 40.3809 170.746 39.0143L170.881 32.1589L170.491 32.1593ZM159.759 15.3987C162.838 14.0862 165.485 13.531 168.401 13.531C173.727 13.531 177.367 15.519 178.614 19.0739C179.025 20.3814 179.214 21.3776 179.177 24.8074L178.976 35.5186V36.0845C178.976 39.5097 179.538 40.8219 181.959 42.6247L177.562 47.7428C175.628 46.9261 173.906 45.4886 173.1 43.8741C172.49 44.5028 171.804 45.1128 171.177 45.5538C169.644 46.6761 167.402 47.3018 164.81 47.3018C157.762 47.3018 153.933 43.6804 153.933 37.3372C153.933 29.8478 159.074 26.3545 169.141 26.3545C169.746 26.3545 170.319 26.3545 171.005 26.4251V25.1241C171.005 21.5656 170.319 20.3814 167.273 20.3814C164.648 20.3814 161.531 21.6824 158.139 23.9936L154.612 18.01C156.292 16.9476 157.529 16.33 159.759 15.3987Z" fill="white"/>
</g>
<defs>
<clipPath id="clip0_4066_579">
<rect width="182" height="48" fill="white"/>
</clipPath>
</defs>
</svg>
