<svg width="48" height="48" viewBox="0 0 48 48" fill="none" xmlns="http://www.w3.org/2000/svg">
<g clip-path="url(#clip0_4066_577)">
<path d="M24.0005 48C23.7619 48 23.5244 47.9958 23.2872 47.9889L28.192 34.5091H34.942C36.1268 34.5091 37.4274 33.5983 37.8326 32.4856L43.1537 17.8693C44.0244 15.4763 42.6537 13.5186 40.1074 13.5186H30.7429L22.886 35.1092H22.883L18.4286 47.3484C7.86093 44.8362 0.000488281 35.3364 0.000488281 24C0.000488281 12.9906 7.41382 3.71333 17.5208 0.886L12.9247 13.5186H12.9234L5.28271 34.5091L10.369 34.5096L16.8668 16.6729H20.6896L14.1918 34.5096L19.2763 34.5104L25.3316 17.8693C26.2027 15.4763 24.8319 13.5186 22.2879 13.5186H18.0124L22.9216 0.0252222C23.2794 0.00933333 23.6387 0 24.0003 0C37.2551 0 48.0003 10.7451 48.0003 24C48.0003 37.2548 37.2551 48 24.0003 48H24.0005ZM38.5218 16.66H34.7001L29.3483 31.3442H33.17L38.5218 16.66Z" fill="white"/>
</g>
<defs>
<clipPath id="clip0_4066_577">
<rect width="48" height="48" fill="white"/>
</clipPath>
</defs>
</svg>
