<svg width="140" height="48" viewBox="0 0 140 48" fill="none" xmlns="http://www.w3.org/2000/svg">
<g clip-path="url(#clip0_4066_567)">
<path d="M21.649 23.3242H27.6697V31.7818C25.7911 32.3854 23.4192 32.7165 20.9536 32.7165C10.9609 32.7165 5.08787 24.158 5.08787 15.7995C5.08787 7.60154 10.4001 1.85119 17.8115 1.85119C22.5012 1.85119 25.2301 3.44023 27.6714 5.65371V8.41309L32.249 3.8347C29.3536 1.87546 25.161 0.0134583 19.1684 0.0134583C6.01313 0.0134583 0 9.42655 0 17.1623C0 28.1735 8.01881 34.8067 18.0958 34.8067C22.9818 34.8067 27.3201 34.0607 32.3314 32.666V23.928C32.3314 23.4812 32.5277 23.1746 32.8212 22.9054L34.4025 21.3238H23.6641L21.649 23.3242Z" fill="white"/>
<path d="M48.6196 11.8305C41.0476 11.8305 36.356 17.3644 36.356 23.2384C36.356 28.3084 40.1356 34.328 47.7935 34.328C55.1599 34.328 59.6796 28.7833 59.6796 22.8065C59.6796 17.2392 55.2627 11.8326 48.6196 11.8326V11.8305ZM47.3633 13.4439C52.7019 13.4439 55.0794 20.4003 55.0794 25.3619C55.0794 32.7408 49.5447 32.8867 48.883 32.8867C46.3503 32.8867 44.5801 31.3557 43.2551 29.3477C42.0887 27.4971 40.9485 24.0589 40.9485 20.6994C40.9485 17.353 42.0437 15.7191 43.7673 14.517C45.1766 13.6159 46.4963 13.4439 47.3615 13.4439H47.3633Z" fill="white"/>
<path d="M98.1177 11.8286C91.5044 11.8286 87.9267 16.0163 87.9267 20.6919C87.9267 24.2515 90.4763 28.2671 95.7362 28.2671H97.0669C97.0669 28.2671 96.7045 29.1477 96.7026 29.9983C96.7026 31.2529 97.153 31.9575 98.1099 33.0418C89.0593 33.5933 85.4219 37.2445 85.4219 41.1685C85.4219 44.6049 88.7118 47.9868 95.6257 47.9868C103.811 47.9868 108.05 43.4418 108.05 38.9814C108.05 35.8369 106.484 34.1132 102.517 31.1407C101.351 30.234 101.125 29.6566 101.125 28.9779C101.125 28.0058 101.706 27.3625 101.919 27.1196C102.295 26.7233 102.945 26.2709 103.188 26.054C104.521 24.9248 106.403 23.2537 106.403 19.9183C106.403 17.6301 105.452 15.6615 103.284 13.8182H105.931L107.919 11.8291H98.1177V11.8286ZM96.2934 13.3168C97.4935 13.3168 98.4951 13.7412 99.5531 14.6217C100.727 15.6798 102.602 18.5233 102.602 22.0417C102.602 25.8387 99.6523 26.8781 98.056 26.8781C97.2747 26.8781 96.3385 26.6594 95.5458 26.1172C93.785 24.9752 92.0371 21.9351 92.0371 18.3177C92.0371 15.0535 93.9811 13.3168 96.2934 13.3168ZM98.9121 34.4832C99.4166 34.4832 99.7795 34.5245 99.7795 34.5245C99.7795 34.5245 100.97 35.3751 101.802 36.0106C103.738 37.5417 104.946 38.712 104.946 40.7967C104.946 43.6626 102.288 45.9097 97.9829 45.9097C93.2578 45.9097 89.6464 43.7093 89.6464 40.1164C89.6464 37.1399 92.1212 34.5784 98.9121 34.4832Z" fill="white"/>
<path d="M109.351 33.6718H118.43L119.813 32.2886L117.209 31.9633C116.508 31.8773 116.091 31.2716 116.091 30.6846V3.25722C116.091 2.71694 116.342 2.44025 116.525 2.26433L118.162 0.626648H110.42L108.405 2.64197H111.415V31.0527C111.415 31.4565 111.288 31.7313 111.015 32.0136L109.351 33.6718Z" fill="white"/>
<path d="M130.731 11.8305C125.661 11.8305 120.276 15.6948 120.276 22.6325C120.276 28.3623 124.14 34.328 131.359 34.328C133.159 34.328 134.641 34.0964 136.03 33.4589C137.52 32.7728 138.953 31.6586 140 30.2583C138.024 31.2548 136.413 31.9091 134.273 31.9091C130.205 31.9091 126.284 28.974 124.912 23.5786L139.28 17.7701C138.45 14.8107 136.11 11.8305 130.733 11.8305H130.731ZM129.792 13.4177C132.512 13.4177 134.478 15.6555 134.478 17.4072C134.478 17.9737 134.123 18.2728 133.42 18.5495L124.588 22.1221C124.588 22.1221 124.349 21.0098 124.349 19.8077C124.349 14.7656 127.994 13.4177 129.792 13.4177Z" fill="white"/>
<path d="M74.3135 11.8305C66.7414 11.8305 62.0498 17.3644 62.0498 23.2384C62.0498 28.3084 65.8295 34.328 73.4873 34.328C80.8538 34.328 85.3734 28.7833 85.3734 22.8065C85.3734 17.2392 80.9566 11.8326 74.3135 11.8326V11.8305ZM73.0573 13.4439C78.3958 13.4439 80.7732 20.4003 80.7732 25.3619C80.7732 32.7408 75.2386 32.8867 74.5769 32.8867C72.0442 32.8867 70.2741 31.3557 68.949 29.3477C67.7826 27.4971 66.6424 24.0589 66.6424 20.6994C66.6424 17.353 67.7375 15.7191 69.4611 14.517C70.8705 13.6159 72.1901 13.4439 73.0554 13.4439H73.0573Z" fill="white"/>
</g>
<defs>
<clipPath id="clip0_4066_567">
<rect width="140" height="48" fill="white"/>
</clipPath>
</defs>
</svg>
