<svg width="109" height="48" viewBox="0 0 109 48" fill="none" xmlns="http://www.w3.org/2000/svg">
<path d="M108.943 36.99C105.246 39.0402 101.189 39.8169 97.0101 39.8169C86.0464 39.8169 81.6628 33.6227 81.6628 23.9257C81.6628 14.2287 86.3766 7.92233 97.0101 7.92233C101.51 7.92233 105.642 8.96658 109 12.9777L104.487 17.0987C102.78 14.7907 100.184 13.6919 97.0101 13.6919C90.7253 13.6919 88.5785 18.2869 88.5785 23.9257C88.5785 29.5645 90.1196 33.8581 97.0101 33.8581C99.7424 33.8581 101.284 33.5523 102.45 32.8689V27.4615H96.6703V21.879H108.943L108.943 36.99ZM58.7329 8.60617V39.4098H80.6273V33.2491H65.9333V8.62157L58.7329 8.60617Z" fill="white"/>
<path d="M24.0421 48C37.3202 48 48.0842 37.2548 48.0842 24C48.0842 10.7452 37.3202 0 24.0421 0C10.764 0 0 10.7452 0 24C0 37.2548 10.764 48 24.0421 48Z" fill="white"/>
<path d="M29.4909 22.9466V25.1468H42.0562C41.782 29.7238 39.8128 33.8374 36.7614 36.8852C33.4672 40.1729 28.9262 42.2024 23.9008 42.2024C18.8746 42.2024 14.3345 40.1729 11.0393 36.8852C7.74727 33.5954 5.71286 29.0633 5.71286 24.0471C5.71286 19.0297 7.74727 14.4976 11.0393 11.2082C14.3345 7.92056 18.8746 5.89104 23.9008 5.89104L24.898 5.89016V3.69034H23.9008C12.6382 3.69122 3.50918 12.8034 3.5083 24.0471C3.50918 35.29 12.6382 44.4022 23.9008 44.4031C35.1635 44.4022 44.2925 35.29 44.2934 24.0471V22.9466H29.4909ZM13.1738 16.4382C13.1738 16.833 13.2517 17.2238 13.403 17.5886C13.5544 17.9533 13.7762 18.2846 14.0558 18.5638C14.3354 18.8429 14.6674 19.0643 15.0327 19.2154C15.3981 19.3665 15.7896 19.4442 16.1851 19.4442C16.5805 19.4442 16.9721 19.3665 17.3374 19.2154C17.7028 19.0643 18.0348 18.8429 18.3144 18.5638C18.594 18.2846 18.8158 17.9533 18.9671 17.5886C19.1185 17.2238 19.1964 16.833 19.1964 16.4382C19.1964 15.641 18.8791 14.8764 18.3144 14.3126C17.7497 13.7489 16.9837 13.4322 16.1851 13.4322C15.3864 13.4322 14.6205 13.7489 14.0558 14.3126C13.4911 14.8764 13.1738 15.641 13.1738 16.4382ZM22.704 13.5088V34.7162H29.5465V32.5155H24.9081L24.909 13.5088H22.704Z" fill="#010313"/>
</svg>
