<svg width="20" height="20" viewBox="0 0 20 20" fill="none" xmlns="http://www.w3.org/2000/svg">
<g clip-path="url(#clip0_1066_1184)">
<path d="M17 10.8334C16.4129 10.8019 15.8321 10.9676 15.35 11.3042C15.0425 7.91007 13.4475 4.15007 10.6742 0.342568C10.5931 0.241733 10.4905 0.160366 10.3738 0.10446C10.2571 0.0485532 10.1294 0.0195313 9.99999 0.0195312C9.87062 0.0195312 9.74289 0.0485532 9.62621 0.10446C9.50954 0.160366 9.40689 0.241733 9.32583 0.342568C6.54999 4.1534 4.95499 7.91673 4.64749 11.3126C2.72999 10.0001 -0.0500063 11.4509 -6.27479e-06 14.5834C0.227494 21.7417 10.6067 21.7409 10.8333 14.5834C10.8425 11.5517 8.32249 10.0734 6.32833 11.2092C6.82146 7.98307 8.0805 4.92205 9.99999 2.28257C11.9217 4.9244 13.1814 7.9888 13.6733 11.2184C13.3237 11.0205 12.9368 10.8975 12.5371 10.8572C12.1374 10.8169 11.7337 10.8601 11.3517 10.9842C13.0083 12.9626 12.7683 16.7226 11.13 18.7526C14.4892 21.6826 20.0983 19.0859 20 14.5859C20 12.2367 18.4758 10.8334 17 10.8334Z" fill="#C1BFD8"/>
</g>
<defs>
<clipPath id="clip0_1066_1184">
<rect width="20" height="20" fill="white"/>
</clipPath>
</defs>
</svg>
