<svg width="20" height="20" viewBox="0 0 20 20" fill="none" xmlns="http://www.w3.org/2000/svg">
<g clip-path="url(#clip0_1066_1159)">
<path fill-rule="evenodd" clip-rule="evenodd" d="M11.5423 0.00490073C10.9903 -0.0135457 10.5792 0.47488 10.6239 1.02536L10.8154 3.38851C9.43092 3.20972 8.02496 3.46713 6.79344 4.12513C5.55661 4.78598 4.55786 5.81767 3.9375 7.0753C3.31713 8.33292 3.10632 9.75329 3.33467 11.1369C3.56303 12.5205 4.21908 13.7978 5.21066 14.7894C6.20224 15.7809 7.47954 16.437 8.86313 16.6653C10.2467 16.8937 11.6671 16.6829 12.9247 16.0625C14.1823 15.4422 15.214 14.4434 15.8749 13.2066C16.133 12.7234 16.3295 12.2135 16.4622 11.6885L18.0011 12.556C18.4822 12.8273 19.0979 12.6588 19.3125 12.1499C19.7967 11.0016 20.0316 9.7593 19.9966 8.50588C19.9523 6.91812 19.4766 5.37238 18.6206 4.03441C17.7646 2.69644 16.5605 1.61671 15.1375 0.911023C14.0141 0.35393 12.7878 0.0465252 11.5423 0.00490073ZM11.4358 10.8334H13.3333C13.5543 10.8334 13.7663 10.7456 13.9226 10.5893C14.0789 10.433 14.1667 10.221 14.1667 10C14.1667 9.77901 14.0789 9.56704 13.9226 9.41076C13.7663 9.25448 13.5543 9.16669 13.3333 9.16669H11.4358C11.2906 8.91704 11.083 8.70942 10.8333 8.56419V5.83335C10.8333 5.61234 10.7455 5.40038 10.5893 5.2441C10.433 5.08782 10.221 5.00002 10 5.00002C9.77898 5.00002 9.56702 5.08782 9.41074 5.2441C9.25446 5.40038 9.16666 5.61234 9.16666 5.83335V8.56419C8.94564 8.69145 8.75688 8.86788 8.615 9.07982C8.47312 9.29175 8.38193 9.53351 8.34849 9.78635C8.31505 10.0392 8.34027 10.2963 8.42218 10.5379C8.50409 10.7794 8.6405 10.9988 8.82084 11.1792C9.00118 11.3595 9.22062 11.4959 9.46215 11.5778C9.70368 11.6597 9.96083 11.685 10.2137 11.6515C10.4665 11.6181 10.7083 11.5269 10.9202 11.385C11.1321 11.2431 11.3086 11.0544 11.4358 10.8334ZM2.9166 4.36414C2.79912 4.24876 2.65009 4.17077 2.48833 4.14002C2.38051 4.11952 2.26971 4.12052 2.16228 4.14296C2.05485 4.1654 1.95292 4.20884 1.86232 4.27079C1.77173 4.33273 1.69426 4.41196 1.63437 4.50393C1.57448 4.59589 1.53335 4.69878 1.51333 4.80668C1.4833 4.96858 1.5019 5.13575 1.56678 5.28708C1.63167 5.43842 1.73994 5.56714 1.87792 5.657C2.0159 5.74685 2.17741 5.79382 2.34206 5.79197C2.50671 5.79012 2.66712 5.73953 2.80304 5.64659C2.93897 5.55365 3.04431 5.42252 3.10578 5.26977C3.16724 5.11701 3.18208 4.94947 3.14841 4.78829C3.11474 4.62711 3.03407 4.47951 2.9166 4.36414ZM1.58326 7.68664C1.46578 7.57126 1.31676 7.49327 1.155 7.46252H1.1525C1.04486 7.44238 0.934315 7.44366 0.827174 7.46627C0.720034 7.48888 0.6184 7.53239 0.528083 7.59431C0.437766 7.65622 0.360536 7.73533 0.30081 7.82711C0.241083 7.91888 0.200029 8.02153 0.179996 8.12919C0.149962 8.29108 0.168563 8.45825 0.233451 8.60958C0.29834 8.76092 0.406607 8.88964 0.544588 8.9795C0.682568 9.06936 0.844076 9.11632 1.00873 9.11447C1.17337 9.11262 1.33379 9.06203 1.46971 8.96909C1.60563 8.87615 1.71098 8.74503 1.77244 8.59227C1.83391 8.43951 1.84874 8.27197 1.81508 8.11079C1.78141 7.94961 1.70074 7.80201 1.58326 7.68664ZM8.86837 18.4108C8.75097 18.2951 8.60189 18.2168 8.44 18.1859H8.4375C8.22084 18.1451 7.99686 18.1918 7.81458 18.3158C7.63231 18.4398 7.50661 18.631 7.465 18.8475C7.43398 19.0094 7.45166 19.1769 7.51581 19.3287C7.57997 19.4805 7.6877 19.6099 7.8254 19.7005C7.9631 19.7911 8.12457 19.8388 8.2894 19.8377C8.45422 19.8365 8.615 19.7865 8.75139 19.6939C8.88778 19.6013 8.99365 19.4704 9.05563 19.3177C9.1176 19.1649 9.13289 18.9973 9.09956 18.8358C9.06623 18.6744 8.98577 18.5265 8.86837 18.4108ZM5.43493 1.80747C5.31745 1.69209 5.16843 1.61411 5.00666 1.58335C4.89885 1.56285 4.78804 1.56385 4.68062 1.58629C4.57319 1.60874 4.47125 1.65218 4.38066 1.71412C4.29006 1.77606 4.2126 1.85529 4.15271 1.94726C4.09282 2.03922 4.05168 2.14211 4.03166 2.25002C4.00163 2.41192 4.02023 2.57908 4.08512 2.73042C4.15001 2.88175 4.25827 3.01047 4.39625 3.10033C4.53424 3.19019 4.69574 3.23715 4.86039 3.2353C5.02504 3.23345 5.18545 3.18286 5.32138 3.08992C5.4573 2.99698 5.56264 2.86586 5.62411 2.7131C5.68558 2.56034 5.70041 2.3928 5.66674 2.23162C5.63307 2.07044 5.55241 1.92285 5.43493 1.80747ZM8.90992 0.406378C8.79439 0.288627 8.6465 0.207817 8.485 0.174185C8.26922 0.12925 8.04443 0.171628 7.85983 0.292043C7.67522 0.412457 7.54584 0.6011 7.5 0.816685C7.46568 0.978044 7.48003 1.14596 7.54123 1.29915C7.60243 1.45235 7.70772 1.58394 7.84376 1.67724C7.97981 1.77055 8.14048 1.82138 8.30544 1.82329C8.4704 1.82521 8.63221 1.77812 8.77038 1.68799C8.90855 1.59786 9.01687 1.46875 9.0816 1.31702C9.14633 1.16528 9.16457 0.997746 9.13401 0.835634C9.10345 0.673522 9.02546 0.524129 8.90992 0.406378ZM0.419115 11.2768C0.303738 11.3942 0.225751 11.5433 0.194996 11.705C0.174498 11.8128 0.175498 11.9236 0.197939 12.0311C0.22038 12.1385 0.26382 12.2404 0.325765 12.331C0.387709 12.4216 0.466938 12.4991 0.558903 12.559C0.650868 12.6189 0.753757 12.66 0.861663 12.68C1.02356 12.7101 1.19073 12.6915 1.34206 12.6266C1.4934 12.5617 1.62212 12.4534 1.71197 12.3154C1.80183 12.1774 1.8488 12.0159 1.84695 11.8513C1.84509 11.6866 1.7945 11.5262 1.70157 11.3903C1.60863 11.2544 1.4775 11.149 1.32475 11.0876C1.17199 11.0261 1.00445 11.0113 0.843265 11.0449C0.682085 11.0786 0.534491 11.1593 0.419115 11.2768ZM1.81995 14.5793C1.70457 14.6967 1.62658 14.8458 1.59583 15.0075C1.57533 15.1153 1.57633 15.2261 1.59877 15.3336C1.62121 15.441 1.66465 15.5429 1.7266 15.6335C1.78854 15.7241 1.86777 15.8016 1.95974 15.8615C2.0517 15.9214 2.15459 15.9625 2.2625 15.9825C2.42439 16.0126 2.59156 15.994 2.7429 15.9291C2.89423 15.8642 3.02295 15.7559 3.11281 15.6179C3.20267 15.4799 3.24963 15.3184 3.24778 15.1538C3.24593 14.9891 3.19534 14.8287 3.1024 14.6928C3.00946 14.5569 2.87834 14.4515 2.72558 14.3901C2.57282 14.3286 2.40528 14.3138 2.2441 14.3474C2.08292 14.3811 1.93532 14.4618 1.81995 14.5793ZM4.36328 17.0718C4.2479 17.1892 4.16992 17.3383 4.13916 17.5C4.11866 17.6078 4.11967 17.7186 4.14211 17.8261C4.16455 17.9335 4.20799 18.0354 4.26993 18.126C4.33188 18.2166 4.41111 18.2941 4.50307 18.354C4.59504 18.4139 4.69792 18.455 4.80583 18.475C4.96773 18.5051 5.13489 18.4865 5.28623 18.4216C5.43756 18.3567 5.56628 18.2484 5.65614 18.1104C5.746 17.9725 5.79297 17.8109 5.79111 17.6463C5.78926 17.4816 5.73867 17.3212 5.64573 17.1853C5.55279 17.0494 5.42167 16.944 5.26891 16.8826C5.11616 16.8211 4.94861 16.8063 4.78743 16.8399C4.62625 16.8736 4.47866 16.9543 4.36328 17.0718ZM17.0834 15.6367C17.2009 15.7521 17.3499 15.8301 17.5117 15.8609V15.86C17.6194 15.8805 17.7302 15.8796 17.8375 15.8572C17.9449 15.8348 18.0468 15.7914 18.1374 15.7296C18.228 15.6677 18.3055 15.5886 18.3654 15.4967C18.4253 15.4048 18.4666 15.302 18.4867 15.1942C18.5167 15.0323 18.4981 14.8651 18.4332 14.7138C18.3683 14.5625 18.2601 14.4337 18.1221 14.3439C17.9841 14.254 17.8226 14.2071 17.6579 14.2089C17.4933 14.2108 17.3329 14.2613 17.197 14.3543C17.061 14.4472 16.9557 14.5783 16.8942 14.7311C16.8328 14.8839 16.8179 15.0514 16.8516 15.2126C16.8853 15.3738 16.9659 15.5214 17.0834 15.6367ZM14.5651 18.1926C14.6825 18.3079 14.8316 18.3859 14.9933 18.4167C15.1011 18.4372 15.2119 18.4362 15.3194 18.4137C15.4268 18.3913 15.5287 18.3479 15.6193 18.2859C15.7099 18.224 15.7874 18.1447 15.8473 18.0528C15.9072 17.9608 15.9483 17.8579 15.9683 17.75C15.9984 17.5881 15.9798 17.421 15.9149 17.2696C15.85 17.1183 15.7417 16.9896 15.6037 16.8997C15.4658 16.8099 15.3043 16.7629 15.1396 16.7647C14.975 16.7666 14.8145 16.8172 14.6786 16.9101C14.5427 17.0031 14.4374 17.1342 14.3759 17.2869C14.3144 17.4397 14.2996 17.6072 14.3333 17.7684C14.3669 17.9296 14.4476 18.0772 14.5651 18.1926ZM11.2825 19.5719C11.3999 19.6875 11.549 19.7658 11.7108 19.7967V19.7934C11.9275 19.8349 12.1518 19.7889 12.3346 19.6653C12.5174 19.5417 12.6437 19.3507 12.6858 19.1342C12.7167 18.9723 12.6988 18.8049 12.6346 18.6531C12.5703 18.5014 12.4625 18.3721 12.3247 18.2816C12.187 18.1912 12.0255 18.1436 11.8607 18.1449C11.6959 18.1461 11.5352 18.1963 11.3989 18.2889C11.2626 18.3815 11.1568 18.5125 11.0949 18.6652C11.033 18.818 11.0178 18.9856 11.0512 19.147C11.0846 19.3084 11.1651 19.4562 11.2825 19.5719Z" fill="#C1BFD8"/>
</g>
<defs>
<clipPath id="clip0_1066_1159">
<rect width="20" height="20" fill="white"/>
</clipPath>
</defs>
</svg>
