<svg width="20" height="20" viewBox="0 0 20 20" fill="none" xmlns="http://www.w3.org/2000/svg">
<g clip-path="url(#clip0_1066_1179)">
<path d="M18.6933 9.20489C18.4117 8.49989 18.0067 7.84155 17.5 7.26572V4.16989C17.5 3.65489 17.2683 3.17655 16.8633 2.85655C16.465 2.54239 15.9558 2.42905 15.4625 2.54489C13.9417 2.90739 12.8008 3.76905 12.19 4.99989H7.72083C5.57 4.99989 3.63917 5.96489 2.37167 7.47405C1.37167 7.32822 1.4925 5.83155 2.49917 5.83322C3.58833 5.82905 3.58917 4.17072 2.49917 4.16655C-0.155001 4.15822 -0.941668 7.83822 1.4425 8.92405C-0.0233341 11.9407 1.25167 15.8257 4.16583 17.4341V17.4999C4.1675 20.2924 8.11583 20.9316 9.02333 18.3332H10.9758C11.8833 20.9332 15.8317 20.2907 15.8333 17.4999V17.4232C17.1333 16.6707 18.1425 15.5066 18.6933 14.1282C19.3775 13.9824 20 13.4216 20 12.4999V10.8332C20 9.91155 19.3767 9.35072 18.6933 9.20489ZM15 10.8332C13.91 10.8282 13.91 9.17155 15 9.16655C16.09 9.17155 16.09 10.8282 15 10.8332ZM5.04333 3.75989C4.575 -0.899281 11.4933 -1.35011 11.6667 3.33322H7.72167C6.7875 3.33322 5.88833 3.48739 5.04333 3.75989Z" fill="#C1BFD8"/>
</g>
<defs>
<clipPath id="clip0_1066_1179">
<rect width="20" height="20" fill="white"/>
</clipPath>
</defs>
</svg>
