<svg width="20" height="20" viewBox="0 0 20 20" fill="none" xmlns="http://www.w3.org/2000/svg">
<g clip-path="url(#clip0_1066_1170)">
<path d="M2.48833 4.14008C2.65009 4.17083 2.79912 4.24882 2.9166 4.36419C3.03407 4.47957 3.11474 4.62716 3.14841 4.78835C3.18208 4.94953 3.16724 5.11707 3.10578 5.26983C3.04431 5.42258 2.93897 5.55371 2.80304 5.64665C2.66712 5.73959 2.50671 5.79017 2.34206 5.79203C2.17741 5.79388 2.0159 5.74691 1.87792 5.65706C1.73994 5.5672 1.63167 5.43848 1.56679 5.28714C1.5019 5.13581 1.4833 4.96864 1.51333 4.80674C1.53335 4.69884 1.57448 4.59595 1.63437 4.50398C1.69426 4.41202 1.77173 4.33279 1.86232 4.27085C1.95292 4.2089 2.05486 4.16546 2.16228 4.14302C2.26971 4.12058 2.38051 4.11958 2.48833 4.14008ZM1.155 7.46258C1.31676 7.49333 1.46578 7.57132 1.58326 7.6867C1.70074 7.80207 1.78141 7.94967 1.81508 8.11085C1.84874 8.27203 1.83391 8.43957 1.77244 8.59233C1.71098 8.74508 1.60563 8.87621 1.46971 8.96915C1.33379 9.06209 1.17338 9.11267 1.00873 9.11453C0.844076 9.11638 0.682568 9.06941 0.544588 8.97956C0.406607 8.8897 0.29834 8.76098 0.233451 8.60964C0.168563 8.45831 0.149962 8.29114 0.179996 8.12924C0.200029 8.02159 0.241083 7.91894 0.30081 7.82716C0.360536 7.73539 0.437766 7.65628 0.528083 7.59436C0.6184 7.53245 0.720034 7.48894 0.827174 7.46633C0.934315 7.44372 1.04486 7.44244 1.1525 7.46258H1.155ZM8.44 18.1859C8.60189 18.2169 8.75097 18.2952 8.86837 18.4109C8.98577 18.5266 9.06623 18.6745 9.09956 18.8359C9.13289 18.9973 9.1176 19.165 9.05563 19.3177C8.99365 19.4705 8.88778 19.6014 8.75139 19.694C8.615 19.7865 8.45422 19.8365 8.2894 19.8377C8.12457 19.8389 7.9631 19.7912 7.8254 19.7006C7.6877 19.61 7.57997 19.4806 7.51581 19.3287C7.45166 19.1769 7.43398 19.0095 7.465 18.8476C7.50661 18.6311 7.63231 18.4399 7.81458 18.3159C7.99686 18.1919 8.22084 18.1451 8.4375 18.1859H8.44ZM5.00666 1.58341C5.16843 1.61416 5.31745 1.69215 5.43493 1.80753C5.55241 1.9229 5.63307 2.0705 5.66674 2.23168C5.70041 2.39286 5.68558 2.5604 5.62411 2.71316C5.56264 2.86592 5.4573 2.99704 5.32138 3.08998C5.18545 3.18292 5.02504 3.23351 4.86039 3.23536C4.69574 3.23721 4.53424 3.19025 4.39626 3.10039C4.25827 3.01053 4.15001 2.88181 4.08512 2.73048C4.02023 2.57914 4.00163 2.41197 4.03166 2.25008C4.05168 2.14217 4.09282 2.03928 4.15271 1.94732C4.2126 1.85535 4.29006 1.77612 4.38066 1.71418C4.47125 1.65223 4.57319 1.60879 4.68062 1.58635C4.78804 1.56391 4.89885 1.56291 5.00666 1.58341ZM8.485 0.174243C8.6465 0.207875 8.79439 0.288685 8.90992 0.406436C9.02546 0.524187 9.10345 0.673581 9.13401 0.835693C9.16457 0.997805 9.14633 1.16534 9.0816 1.31708C9.01687 1.46881 8.90855 1.59792 8.77038 1.68805C8.63221 1.77818 8.4704 1.82527 8.30544 1.82335C8.14048 1.82144 7.97981 1.77061 7.84376 1.6773C7.70772 1.584 7.60243 1.45241 7.54123 1.29921C7.48004 1.14602 7.46568 0.978103 7.5 0.816743C7.54584 0.601159 7.67522 0.412516 7.85983 0.292101C8.04443 0.171687 8.26922 0.129309 8.485 0.174243ZM0.194996 11.7051C0.225751 11.5433 0.303738 11.3943 0.419115 11.2768C0.534491 11.1593 0.682085 11.0787 0.843265 11.045C1.00445 11.0113 1.17199 11.0262 1.32475 11.0876C1.4775 11.1491 1.60863 11.2544 1.70157 11.3904C1.7945 11.5263 1.84509 11.6867 1.84695 11.8513C1.8488 12.016 1.80183 12.1775 1.71197 12.3155C1.62212 12.4535 1.4934 12.5617 1.34206 12.6266C1.19073 12.6915 1.02356 12.7101 0.861663 12.6801C0.753757 12.6601 0.650868 12.6189 0.558903 12.559C0.466938 12.4991 0.387709 12.4217 0.325765 12.3311C0.26382 12.2405 0.22038 12.1386 0.197939 12.0311C0.175498 11.9237 0.174498 11.8129 0.194996 11.7051ZM1.59583 15.0076C1.62658 14.8458 1.70457 14.6968 1.81995 14.5793C1.93532 14.4618 2.08292 14.3812 2.2441 14.3475C2.40528 14.3138 2.57282 14.3287 2.72558 14.3901C2.87834 14.4516 3.00946 14.5569 3.1024 14.6929C3.19534 14.8288 3.24593 14.9892 3.24778 15.1538C3.24963 15.3185 3.20267 15.48 3.11281 15.618C3.02295 15.756 2.89423 15.8642 2.7429 15.9291C2.59156 15.994 2.42439 16.0126 2.2625 15.9826C2.15459 15.9626 2.0517 15.9214 1.95974 15.8615C1.86777 15.8016 1.78854 15.7242 1.7266 15.6336C1.66465 15.543 1.62121 15.4411 1.59877 15.3336C1.57633 15.2262 1.57533 15.1154 1.59583 15.0076ZM4.13916 17.5001C4.16992 17.3383 4.24791 17.1893 4.36328 17.0718C4.47866 16.9543 4.62625 16.8737 4.78743 16.84C4.94861 16.8063 5.11616 16.8212 5.26891 16.8826C5.42167 16.9441 5.55279 17.0494 5.64573 17.1854C5.73867 17.3213 5.78926 17.4817 5.79111 17.6463C5.79297 17.811 5.746 17.9725 5.65614 18.1105C5.56628 18.2485 5.43756 18.3567 5.28623 18.4216C5.13489 18.4865 4.96773 18.5051 4.80583 18.4751C4.69792 18.4551 4.59504 18.4139 4.50307 18.354C4.41111 18.2941 4.33188 18.2167 4.26993 18.1261C4.20799 18.0355 4.16455 17.9336 4.14211 17.8261C4.11967 17.7187 4.11867 17.6079 4.13916 17.5001ZM17.5117 15.8609C17.3499 15.8302 17.2009 15.7522 17.0834 15.6368C16.9659 15.5214 16.8853 15.3738 16.8516 15.2126C16.8179 15.0515 16.8328 14.8839 16.8942 14.7312C16.9557 14.5784 17.061 14.4473 17.197 14.3543C17.3329 14.2614 17.4933 14.2108 17.6579 14.209C17.8226 14.2071 17.9841 14.2541 18.1221 14.3439C18.2601 14.4338 18.3683 14.5625 18.4332 14.7138C18.4981 14.8652 18.5167 15.0323 18.4867 15.1942C18.4666 15.3021 18.4253 15.4049 18.3654 15.4967C18.3055 15.5886 18.228 15.6678 18.1374 15.7296C18.0468 15.7915 17.9449 15.8348 17.8375 15.8572C17.7302 15.8796 17.6194 15.8806 17.5117 15.8601V15.8609ZM14.9933 18.4167C14.8316 18.386 14.6825 18.308 14.5651 18.1926C14.4476 18.0772 14.3669 17.9297 14.3333 17.7685C14.2996 17.6073 14.3144 17.4398 14.3759 17.287C14.4374 17.1342 14.5427 17.0031 14.6786 16.9102C14.8145 16.8172 14.975 16.7666 15.1396 16.7648C15.3043 16.7629 15.4658 16.8099 15.6037 16.8998C15.7417 16.9896 15.85 17.1183 15.9149 17.2697C15.9798 17.421 15.9984 17.5882 15.9683 17.7501C15.9483 17.858 15.9072 17.9609 15.8473 18.0528C15.7874 18.1448 15.7099 18.224 15.6193 18.286C15.5287 18.3479 15.4268 18.3914 15.3194 18.4138C15.212 18.4362 15.1011 18.4372 14.9933 18.4167ZM11.7108 19.7967C11.549 19.7658 11.3999 19.6876 11.2825 19.5719C11.1651 19.4563 11.0846 19.3084 11.0512 19.1471C11.0178 18.9857 11.033 18.818 11.0949 18.6653C11.1568 18.5125 11.2626 18.3816 11.3989 18.2889C11.5352 18.1963 11.6959 18.1462 11.8607 18.1449C12.0255 18.1436 12.187 18.1912 12.3247 18.2817C12.4625 18.3722 12.5703 18.5015 12.6346 18.6532C12.6988 18.805 12.7167 18.9724 12.6858 19.1342C12.6437 19.3508 12.5174 19.5418 12.3346 19.6654C12.1518 19.7889 11.9275 19.835 11.7108 19.7934V19.7967Z" fill="white" fill-opacity="0.7"/>
<path d="M19.2625 8.36036C19.1264 8.453 18.9659 8.50323 18.8012 8.50472C18.6366 8.5062 18.4752 8.45888 18.3374 8.36871C18.1996 8.27855 18.0916 8.14959 18.0271 7.99811C17.9625 7.84663 17.9443 7.67942 17.9747 7.51759C18.0051 7.35576 18.0827 7.20656 18.1979 7.08883C18.313 6.97109 18.4604 6.8901 18.6215 6.85607C18.7826 6.82204 18.9502 6.83651 19.1031 6.89763C19.256 6.95876 19.3873 7.06381 19.4806 7.19953C19.5426 7.29 19.5861 7.39183 19.6087 7.49917C19.6313 7.60651 19.6325 7.71725 19.6122 7.82504C19.5918 7.93284 19.5505 8.03556 19.4904 8.12732C19.4303 8.21909 19.3526 8.29808 19.2619 8.35977L19.2625 8.36036ZM19.289 11.9483C19.1529 12.041 18.9924 12.0912 18.8277 12.0927C18.6631 12.0942 18.5017 12.0469 18.3639 11.9567C18.2261 11.8665 18.1181 11.7376 18.0536 11.5861C17.989 11.4346 17.9708 11.2674 18.0012 11.1056C18.0316 10.9437 18.1093 10.7945 18.2244 10.6768C18.3395 10.5591 18.4869 10.4781 18.648 10.4441C18.8091 10.41 18.9767 10.4245 19.1296 10.4856C19.2825 10.5467 19.4138 10.6518 19.5071 10.7875C19.5692 10.878 19.6129 10.9798 19.6356 11.0872C19.6582 11.1946 19.6595 11.3054 19.6392 11.4132C19.619 11.5211 19.5776 11.6239 19.5175 11.7157C19.4574 11.8075 19.3798 11.8866 19.289 11.9483Z" fill="white" fill-opacity="0.7"/>
<path fill-rule="evenodd" clip-rule="evenodd" d="M9.99999 16.6666C13.6819 16.6666 16.6667 13.6818 16.6667 9.99992C16.6667 6.31802 13.6819 3.33325 9.99999 3.33325C6.3181 3.33325 3.33333 6.31802 3.33333 9.99992C3.33333 13.6818 6.3181 16.6666 9.99999 16.6666ZM11.4358 10.8333H13.3333C13.5543 10.8333 13.7663 10.7455 13.9226 10.5892C14.0789 10.4329 14.1667 10.2209 14.1667 9.99992C14.1667 9.7789 14.0789 9.56694 13.9226 9.41066C13.7663 9.25438 13.5543 9.16659 13.3333 9.16659H11.4358C11.2906 8.91694 11.083 8.70932 10.8333 8.56409V5.83325C10.8333 5.61224 10.7455 5.40028 10.5892 5.244C10.433 5.08772 10.221 4.99992 9.99999 4.99992C9.77898 4.99992 9.56702 5.08772 9.41074 5.244C9.25445 5.40028 9.16666 5.61224 9.16666 5.83325V8.56409C8.94563 8.69135 8.75687 8.86778 8.61499 9.07972C8.47311 9.29165 8.38192 9.53341 8.34848 9.78625C8.31505 10.0391 8.34026 10.2962 8.42217 10.5378C8.50408 10.7793 8.64049 10.9987 8.82083 11.1791C9.00118 11.3594 9.22061 11.4958 9.46214 11.5777C9.70367 11.6596 9.96082 11.6849 10.2137 11.6514C10.4665 11.618 10.7083 11.5268 10.9202 11.3849C11.1321 11.243 11.3086 11.0543 11.4358 10.8333Z" fill="#C1BFD7"/>
<path d="M10.6238 1.02536C10.5792 0.474881 10.9903 -0.0135457 11.5423 0.00490073C12.85 0.0486046 14.1358 0.385288 15.303 0.995305C16.4702 1.60532 17.4807 2.46881 18.2631 3.51756C18.5934 3.96022 18.427 4.57654 17.9496 4.85417L15.7788 6.1165C15.3014 6.39413 14.6963 6.22104 14.3148 5.82173C13.9968 5.48896 13.6253 5.20857 13.2134 4.99332C12.8016 4.77808 12.3593 4.63308 11.9045 4.56201C11.3589 4.47673 10.8713 4.07878 10.8267 3.5283L10.6238 1.02536Z" fill="#C1BFD8"/>
</g>
<defs>
<clipPath id="clip0_1066_1170">
<rect width="20" height="20" fill="white"/>
</clipPath>
</defs>
</svg>
