<svg width="29" height="29" viewBox="0 0 29 29" fill="none" xmlns="http://www.w3.org/2000/svg">
<g clip-path="url(#clip0_4066_559)">
<path d="M19.74 12.669C18.928 11.857 17.6057 11.857 16.7937 12.669C15.9817 13.481 15.9817 14.8033 16.7937 15.6153C17.6057 16.4273 18.928 16.4273 19.74 15.6153C20.552 14.8033 20.552 13.481 19.74 12.669ZM17.383 15.026C16.8957 14.5387 16.8957 13.7456 17.383 13.2583C17.8703 12.7709 18.6634 12.7709 19.1508 13.2583C19.6381 13.7456 19.6381 14.5387 19.1508 15.026C18.6634 15.5133 17.8703 15.5133 17.383 15.026ZM26.8111 15.6153C27.6231 14.8033 27.6231 13.481 26.8028 12.6607C23.8077 9.83173 19.7341 8.5996 14.9517 9.06039C14.006 8.13703 12.8469 7.43169 11.593 7.01568C9.55591 6.3398 7.20243 6.93966 5.59788 8.54421L5.30326 8.83883L8.24953 11.7851C8.87886 12.4144 9.22593 13.2518 9.22652 14.1421C9.22593 15.0325 8.87945 15.8692 8.24953 16.4992L5.30326 19.4454L5.59788 19.7401C7.20243 21.3446 9.55532 21.9451 11.5924 21.2692C12.8469 20.8538 14.006 20.1472 14.9517 19.2239C19.7335 19.6841 23.8082 18.452 26.8111 15.6153ZM11.3302 7.80646C12.2453 8.10993 13.1038 8.58428 13.851 9.19474C13.7155 9.21478 13.5794 9.2354 13.4426 9.2578C11.2506 9.6196 9.08451 10.4198 8.34971 10.7068L6.49296 8.85003C7.85768 7.68095 9.71442 7.27024 11.3302 7.80646ZM11.3302 20.4778C9.71383 21.0134 7.85768 20.6033 6.49296 19.4342L8.34971 17.5775C9.0851 17.8651 11.2506 18.6647 13.4432 19.0271C13.5799 19.0495 13.7155 19.0707 13.851 19.0907C13.1038 19.7012 12.2453 20.1755 11.3302 20.479L11.3302 20.4778ZM13.5788 18.2045C11.755 17.9034 9.9024 17.2681 8.99023 16.9287C9.68084 16.1627 10.0585 15.1816 10.0591 14.1427C10.0591 13.1033 9.68084 12.1228 8.99023 11.3567C9.9024 11.0173 11.755 10.3821 13.5788 10.081C17.1826 9.48584 22.3027 9.55596 26.2218 13.2583C26.7091 13.7456 26.7091 14.5387 26.2301 15.0178C22.3027 18.7283 17.1826 18.7984 13.5788 18.2045ZM4.12474 12.0585C3.1236 12.0579 1.00169 13.5093 0.586854 13.8004L0.0995386 14.1415L0.586854 14.4827C1.00169 14.7738 3.1236 16.2252 4.12474 16.2246C4.681 16.2246 5.20426 16.0077 5.59788 15.6141C5.99151 15.2205 6.20835 14.6972 6.20835 14.141C6.20894 13.029 5.23667 12.0579 4.12474 12.0585ZM4.12474 15.3914C3.66984 15.3914 2.49545 14.7414 1.5715 14.1415C2.49545 13.5417 3.66984 12.8917 4.12474 12.8917C4.45826 12.8917 4.77234 13.022 5.00863 13.2583C5.24492 13.4945 5.37456 13.808 5.37515 14.1421C5.37573 14.4762 5.24492 14.7897 5.00863 15.026C4.77234 15.2623 4.45885 15.3919 4.12474 15.3925L4.12474 15.3914Z" fill="#020414"/>
</g>
<defs>
<clipPath id="clip0_4066_559">
<rect width="20" height="20" fill="white" transform="translate(14.1421) rotate(45)"/>
</clipPath>
</defs>
</svg>
